<svg width="64" height="64" viewBox="0 0 64 64" fill="none" xmlns="http://www.w3.org/2000/svg">
<path d="M16.7994 13.3333H56L50.6667 32H19.6712M53.3333 42.6667H21.3333L16 8H8M24 53.3333C24 54.8061 22.8061 56 21.3333 56C19.8606 56 18.6667 54.8061 18.6667 53.3333C18.6667 51.8605 19.8606 50.6667 21.3333 50.6667C22.8061 50.6667 24 51.8605 24 53.3333ZM53.3333 53.3333C53.3333 54.8061 52.1395 56 50.6667 56C49.1939 56 48 54.8061 48 53.3333C48 51.8605 49.1939 50.6667 50.6667 50.6667C52.1395 50.6667 53.3333 51.8605 53.3333 53.3333Z" stroke="white" stroke-width="6.4" stroke-linecap="round" stroke-linejoin="round"/>
</svg>
