<svg width="59" height="65" viewBox="0 0 59 65" fill="none" xmlns="http://www.w3.org/2000/svg">
<path d="M58.1702 9.92072L41.9813 0.170258C41.6955 -0.00308315 41.3411 -0.0464187 41.0209 0.0510859C40.7008 0.148591 40.4379 0.376102 40.3121 0.679449L36.425 9.74738H16.8062C16.246 5.84719 12.7133 2.82455 8.44885 2.82455C3.7957 2.82455 0 6.42139 0 10.8308C0 14.8718 3.18976 18.2194 7.30557 18.7503V27.7857C7.30557 35.6186 13.1935 42.1731 21.0021 43.6682V58.8139L16.5776 59.7781C15.3657 60.0381 14.554 61.0456 14.5997 62.2265C14.6454 63.3966 15.5143 64.3283 16.7262 64.5125C18.2925 64.74 20.1446 64.9025 22.0768 64.9675C22.8313 64.9892 23.6088 65 24.3976 65C25.1865 65 25.9639 64.9892 26.7071 64.9567C28.6621 64.8917 30.5142 64.74 32.0691 64.5016C33.2809 64.3283 34.1613 63.3858 34.1956 62.2157C34.2413 61.0348 33.4296 60.0381 32.2177 59.7673L27.7932 58.803V43.679C35.6018 42.1731 41.4897 35.6294 41.4897 27.7966V10.8308C41.4897 10.2349 40.9752 9.74738 40.3464 9.74738H38.883L41.9013 2.69454L56.9354 11.7516C57.4728 12.0767 58.1702 11.925 58.5132 11.4158C58.8676 10.9066 58.7075 10.2349 58.1702 9.92072ZM32.2863 19.4437C31.6003 19.6387 30.9372 19.8879 30.3313 20.2345C29.4281 20.7437 28.342 20.7437 27.4273 20.2237C24.6606 18.6853 21.0935 18.6745 18.3039 20.2345C17.4007 20.7546 16.3146 20.7546 15.4 20.2454C13.6508 19.2595 11.5243 18.8911 9.59213 19.1512V17.7644V11.9141H35.5103L32.2863 19.4437ZM2.28656 10.8308C2.28656 7.61311 5.05331 4.99132 8.44885 4.99132C11.4557 4.99132 13.9595 7.04975 14.4968 9.74738H8.44885C7.82005 9.74738 7.30557 10.2349 7.30557 10.8308V16.5619C4.44737 16.0527 2.28656 13.6801 2.28656 10.8308ZM25.5409 59.7673C25.5523 59.8431 25.5638 59.9081 25.5866 59.9839C25.6095 60.0489 25.6324 60.1139 25.6667 60.1681C25.701 60.2331 25.7467 60.2873 25.7924 60.3414C25.8382 60.3956 25.8839 60.4498 25.9411 60.4931C25.9982 60.5365 26.0554 60.569 26.1126 60.6015C26.1812 60.634 26.2497 60.6665 26.3298 60.6881C26.3641 60.699 26.3869 60.7206 26.4212 60.7315L31.7261 61.8907C31.7832 61.9015 31.9319 61.934 31.9204 62.1507C31.909 62.3349 31.7947 62.3565 31.7261 62.3674C30.2512 62.5841 28.4906 62.7357 26.6156 62.7899C25.1865 62.8549 23.6431 62.8549 22.1797 62.7899C20.3161 62.7249 18.5555 62.5841 17.0806 62.3674C17.012 62.3565 16.8863 62.3349 16.8863 62.1507C16.8748 61.9449 17.0349 61.9124 17.0806 61.8907L22.3855 60.7315C22.4198 60.7206 22.4426 60.699 22.4769 60.6881C22.5569 60.6665 22.6255 60.634 22.6941 60.6015C22.7513 60.569 22.8199 60.5365 22.8656 60.4931C22.9228 60.4498 22.9685 60.3956 23.0143 60.3414C23.06 60.2873 23.1057 60.2331 23.14 60.1681C23.1743 60.1031 23.1972 60.0489 23.2201 59.9839C23.2429 59.9081 23.2544 59.8431 23.2658 59.7673C23.2658 59.7347 23.2886 59.7131 23.2886 59.6806V43.9498C23.6659 43.9715 24.0318 44.004 24.4091 44.004C24.7863 44.004 25.1522 43.9715 25.5295 43.9498V59.6806C25.5295 59.7131 25.5409 59.7456 25.5409 59.7673ZM24.3976 41.8372C16.2232 41.8372 9.5807 35.5428 9.5807 27.7966V21.3288C11.0898 21.0471 12.8276 21.3071 14.2224 22.098C15.0456 22.553 15.9488 22.7913 16.8405 22.7913C17.7437 22.7913 18.6469 22.553 19.4587 22.0871C21.528 20.9387 24.2033 20.9387 26.2497 22.0763C27.7474 22.9322 29.5081 22.9972 31.063 22.3038L25.0493 36.377C24.8092 36.9295 25.095 37.5579 25.6781 37.7854C25.8153 37.8395 25.9639 37.8612 26.1126 37.8612C26.5699 37.8612 26.9929 37.6012 27.1758 37.1787L33.9669 21.2854C35.396 21.0904 36.9966 21.3396 38.3114 22.0871C38.6086 22.2496 38.9059 22.3796 39.226 22.488V27.7857C39.226 35.5319 32.5721 41.8372 24.3976 41.8372ZM39.226 11.9141V20.1154C37.9112 19.422 36.4364 19.0537 34.9273 19.0428L37.9684 11.9141H39.226Z" fill="white"/>
</svg>
