<svg width="36" height="38" viewBox="0 0 36 38" fill="none" xmlns="http://www.w3.org/2000/svg">
<path d="M0 0H31C33.7614 0 36 2.23858 36 5V33C36 35.7614 33.7614 38 31 38H0V0Z" fill="#FF6347"/>
<path d="M29.2889 30L21.5889 22.3C20.9778 22.7889 20.275 23.1759 19.4806 23.4611C18.6861 23.7463 17.8407 23.8889 16.9444 23.8889C14.7241 23.8889 12.8449 23.1199 11.3069 21.5819C9.76898 20.044 9 18.1648 9 15.9444C9 13.7241 9.76898 11.8449 11.3069 10.3069C12.8449 8.76898 14.7241 8 16.9444 8C19.1648 8 21.044 8.76898 22.5819 10.3069C24.1199 11.8449 24.8889 13.7241 24.8889 15.9444C24.8889 16.8407 24.7463 17.6861 24.4611 18.4806C24.1759 19.275 23.7889 19.9778 23.3 20.5889L31 28.2889L29.2889 30ZM16.9444 21.4444C18.4722 21.4444 19.7708 20.9097 20.8403 19.8403C21.9097 18.7708 22.4444 17.4722 22.4444 15.9444C22.4444 14.4167 21.9097 13.1181 20.8403 12.0486C19.7708 10.9792 18.4722 10.4444 16.9444 10.4444C15.4167 10.4444 14.1181 10.9792 13.0486 12.0486C11.9792 13.1181 11.4444 14.4167 11.4444 15.9444C11.4444 17.4722 11.9792 18.7708 13.0486 19.8403C14.1181 20.9097 15.4167 21.4444 16.9444 21.4444Z" fill="white"/>
</svg>
