<svg width="21" height="23" viewBox="0 0 21 23" fill="none" xmlns="http://www.w3.org/2000/svg">
<path d="M4.33337 22.3332V10.1332C3.20004 9.82206 2.25004 9.19984 1.48337 8.2665C0.716707 7.33317 0.333374 6.24428 0.333374 4.99984V-4.3335H3.00004V4.99984H4.33337V-4.3335H7.00004V4.99984H8.33337V-4.3335H11V4.99984C11 6.24428 10.6167 7.33317 9.85004 8.2665C9.08337 9.19984 8.13337 9.82206 7.00004 10.1332V22.3332H4.33337ZM17.6667 22.3332V11.6665H13.6667V2.33317C13.6667 0.488726 14.3167 -1.0835 15.6167 -2.3835C16.9167 -3.6835 18.4889 -4.3335 20.3334 -4.3335V22.3332H17.6667Z" fill="#1F1F1F"/>
</svg>
