<svg width="97" height="64" viewBox="0 0 97 64" fill="none" xmlns="http://www.w3.org/2000/svg">
<path d="M95.3276 40.2114H80.7396C89.5936 32.6086 84.5656 17.7074 73.1072 16.8601C73.8899 14.014 73.7055 10.9886 72.583 8.25864C71.4605 5.52865 69.4634 3.2486 66.9051 1.77625C64.3468 0.303897 61.372 -0.277413 58.4476 0.123533C55.5232 0.52448 52.8147 1.88499 50.7471 3.99158C49.8647 4.89386 49.1098 5.91321 48.5052 7.02099C47.5008 5.20869 46.0903 3.65367 44.3842 2.47788C42.6781 1.30208 40.7229 0.537472 38.6717 0.243997C36.6206 -0.0494778 34.5294 0.136161 32.5621 0.786359C30.5947 1.43656 28.8047 2.53364 27.3324 3.99158C25.6972 5.65725 24.5209 7.7179 23.9183 9.97298C23.3156 12.2281 23.307 14.6007 23.8933 16.8601C20.7696 17.1318 17.8421 18.4972 15.6264 20.7157C13.5283 22.8377 12.1913 25.5943 11.824 28.5557C11.5538 30.7131 11.8171 32.9039 12.5905 34.9361C13.364 36.9682 14.6241 38.7795 16.2604 40.2114H1.67241C1.22886 40.2114 0.803477 40.3876 0.489839 40.7012C0.1762 41.0149 0 41.4402 0 41.8838C0.00501573 45.5842 1.37147 49.1534 3.8389 51.911C6.30634 54.6687 9.70223 56.422 13.3793 56.8368V58.6079C13.3808 59.9381 13.9098 61.2134 14.8504 62.154C15.791 63.0946 17.0663 63.6237 18.3966 63.6252H78.6034C79.9337 63.6237 81.209 63.0946 82.1496 62.154C83.0902 61.2134 83.6192 59.9381 83.6207 58.6079V56.8368C87.2978 56.422 90.6937 54.6687 93.1611 51.911C95.6285 49.1534 96.995 45.5842 97 41.8838C97 41.4402 96.8238 41.0149 96.5102 40.7012C96.1965 40.3876 95.7711 40.2114 95.3276 40.2114ZM15.7725 26.4578C19.5726 16.9605 33.6821 18.763 34.9857 28.8159C33.4504 27.5473 31.52 26.8553 29.5284 26.8595C27.5368 26.8638 25.6094 27.5639 24.0794 28.839C23.1431 29.7144 21.9044 30.1938 20.6227 30.1769C18.1151 30.2103 17.3633 28.6751 15.4076 27.6917C15.5026 27.273 15.6245 26.8608 15.7725 26.4578ZM27.4184 17.005C27.1584 16.2965 26.9797 15.5607 26.8857 14.8119C28.4207 16.0815 30.3514 16.7743 32.3434 16.7704C34.3354 16.7666 36.2633 16.0662 37.7934 14.7907C38.73 13.9151 39.9689 13.4357 41.2509 13.4528C43.7646 13.4193 44.5156 14.9629 46.4871 15.9338C46.4007 16.2962 46.2941 16.6536 46.1678 17.0041C44.2507 17.3526 42.4317 18.1121 40.8361 19.2306C39.2405 20.349 37.9061 21.7997 36.9246 23.4831C36.8364 23.4864 36.7498 23.4864 36.6617 23.4831C36.0759 22.4752 35.3656 21.5452 34.5474 20.7149C32.5944 18.7947 30.1116 17.5027 27.4184 17.005ZM50.6721 10.413C53.848 0.307587 68.7218 1.59535 70.1165 12.0981C68.581 10.8264 66.649 10.1319 64.6553 10.1349C62.6615 10.138 60.7317 10.8384 59.2001 12.1148C58.2638 12.9903 57.0251 13.4697 55.7434 13.4528C53.2294 13.4862 52.4787 11.9429 50.5149 10.9595C50.5619 10.7759 50.6148 10.5939 50.6721 10.413ZM39.1863 26.4578C42.967 17.0272 57.0778 18.7103 58.3995 28.8159C56.8642 27.5473 54.9338 26.8553 52.9422 26.8595C50.9506 26.8638 49.0231 27.5639 47.4932 28.839C46.5569 29.7144 45.3182 30.1938 44.0365 30.1769C41.5289 30.2103 40.7771 28.6751 38.8214 27.6917C38.9164 27.273 39.0383 26.8608 39.1863 26.4578ZM69.5816 17.005C67.6645 17.3534 65.8455 18.113 64.2499 19.2314C62.6543 20.3498 61.3199 21.8006 60.3384 23.4839C60.2502 23.4872 60.1636 23.4872 60.0754 23.4839C59.4897 22.476 58.7794 21.546 57.9612 20.7157C56.0085 18.7954 53.5252 17.5031 50.8322 17.005C50.5722 16.2965 50.3935 15.5607 50.2995 14.8119C51.8345 16.0815 53.7652 16.7743 55.7572 16.7704C57.7492 16.7666 59.6771 16.0662 61.2072 14.7907C62.1437 13.9151 63.3827 13.4357 64.6647 13.4528C67.1784 13.4193 67.9294 14.9629 69.9009 15.9338C69.8146 16.2965 69.708 16.6542 69.5816 17.005ZM44.0365 33.5217C46.0418 33.5428 47.9854 32.8289 49.5003 31.5148C50.4368 30.6391 51.6758 30.1597 52.9578 30.1769C55.4656 30.1434 56.218 31.6799 58.1818 32.6521C55.5226 43.2473 40.0383 42.3439 38.6008 31.5426C40.1126 32.84 42.0445 33.5434 44.0365 33.5217ZM57.9603 39.6381C58.8471 38.748 59.6035 37.737 60.2069 36.6349C60.9417 37.9924 61.918 39.2044 63.088 40.2114H57.3258C57.5394 40.0234 57.7566 39.8419 57.9603 39.6381ZM79.0093 37.2733C77.6848 38.577 76.0246 39.4878 74.2133 39.9045C72.4021 40.3211 70.5108 40.2273 68.7497 39.6334C66.9886 39.0395 65.4267 37.9688 64.2377 36.5404C63.0487 35.1119 62.2791 33.3817 62.0146 31.5421C63.5496 32.809 65.479 33.4997 67.4693 33.4947C69.4595 33.4897 71.3855 32.7894 72.9141 31.5148C73.8506 30.6392 75.0896 30.1598 76.3716 30.1769C78.8802 30.1434 79.6317 31.6799 81.5956 32.6521C81.1678 34.3982 80.2739 35.9955 79.0093 37.2733ZM80.1934 24.5313C81.0562 25.8153 81.6106 27.2814 81.8133 28.815C80.2779 27.5466 78.3474 26.8548 76.3558 26.8591C74.3643 26.8635 72.4368 27.5638 70.907 28.839C69.9707 29.7144 68.732 30.1938 67.4503 30.1769C64.9427 30.2103 64.1909 28.6751 62.2352 27.6917C64.0406 19.5291 75.604 17.4293 80.1934 24.5313ZM36.7931 3.42279C39.2134 3.43062 41.5493 4.31295 43.3703 5.90719C45.1914 7.50142 46.3748 9.70012 46.7027 12.0981C45.1672 10.8264 43.2352 10.1319 41.2415 10.1349C39.2477 10.138 37.3179 10.8384 35.7863 12.1148C34.85 12.9903 33.6113 13.4697 32.3296 13.4528C29.8156 13.4862 29.0649 11.9429 27.1011 10.9595C27.6514 8.80598 28.9024 6.89664 30.657 5.53218C32.4117 4.16771 34.5704 3.42563 36.7931 3.42279ZM15.187 31.5421C16.722 32.809 18.6514 33.4997 20.6417 33.4947C22.6319 33.4897 24.5579 32.7894 26.0865 31.5148C27.0231 30.6392 28.262 30.1598 29.544 30.1769C32.0526 30.1434 32.8041 31.6799 34.768 32.6521C32.1078 43.2471 16.6238 42.3432 15.187 31.5421ZM34.5466 39.6381C35.4333 38.748 36.1897 37.737 36.7931 36.6349C37.5279 37.9924 38.5042 39.2044 39.6742 40.2114H33.912C34.1256 40.0234 34.3429 39.8419 34.5466 39.6381ZM80.2759 58.6079C80.2755 59.0514 80.0991 59.4765 79.7856 59.7901C79.472 60.1036 79.0469 60.2799 78.6034 60.2803H18.3966C17.9531 60.2799 17.528 60.1036 17.2144 59.7901C16.9009 59.4765 16.7245 59.0514 16.7241 58.6079V56.9355H80.2759V58.6079ZM81.9483 53.5907H15.0517C12.2375 53.5871 9.51849 52.5715 7.39109 50.7292C5.26369 48.887 3.86985 46.341 3.46407 43.5562H93.5359C93.1302 46.341 91.7363 48.887 89.6089 50.7292C87.4815 52.5715 84.7625 53.5871 81.9483 53.5907Z" fill="white"/>
</svg>
