<svg width="65" height="65" viewBox="0 0 65 65" fill="none" xmlns="http://www.w3.org/2000/svg">
<path d="M39.6094 6.09375V60.9375C39.6094 61.2069 39.7164 61.4652 39.9068 61.6557C40.0973 61.8461 40.3556 61.9531 40.625 61.9531H44.6875C44.9569 61.9531 45.2152 61.8461 45.4057 61.6557C45.5961 61.4652 45.7031 61.2069 45.7031 60.9375V6.09375C45.7031 5.28567 45.3821 4.51068 44.8107 3.93928C44.2393 3.36788 43.4643 3.04688 42.6562 3.04688C41.8482 3.04688 41.0732 3.36788 40.5018 3.93928C39.9304 4.51068 39.6094 5.28567 39.6094 6.09375ZM41.6406 59.9219V41.6406H43.6719V59.9219H41.6406ZM43.6719 6.09375V39.6094H41.6406V6.09375C41.6406 5.82439 41.7476 5.56606 41.9381 5.37559C42.1286 5.18513 42.3869 5.07812 42.6562 5.07812C42.9256 5.07812 43.1839 5.18513 43.3744 5.37559C43.5649 5.56606 43.6719 5.82439 43.6719 6.09375Z" fill="white"/>
<path d="M47.7344 60.9375C47.7344 61.2069 47.8414 61.4652 48.0318 61.6557C48.2223 61.8461 48.4806 61.9531 48.75 61.9531H52.8125C53.0819 61.9531 53.3402 61.8461 53.5307 61.6557C53.7211 61.4652 53.8281 61.2069 53.8281 60.9375V6.09375C53.8281 5.28567 53.5071 4.51068 52.9357 3.93928C52.3643 3.36788 51.5893 3.04687 50.7812 3.04688C49.9732 3.04687 49.1982 3.36788 48.6268 3.93928C48.0554 4.51068 47.7344 5.28567 47.7344 6.09375V60.9375ZM49.7656 59.9219V41.6406H51.7969V59.9219H49.7656ZM50.7812 5.07812C51.0505 5.07837 51.3087 5.18545 51.4991 5.37586C51.6896 5.56628 51.7966 5.82446 51.7969 6.09375V39.6094H49.7656V6.09375C49.7659 5.82446 49.8729 5.56628 50.0634 5.37586C50.2538 5.18545 50.512 5.07837 50.7812 5.07812Z" fill="white"/>
<path d="M24.375 47.7344C24.1056 47.7344 23.8473 47.8414 23.6568 48.0318C23.4664 48.2223 23.3594 48.4806 23.3594 48.75V50.7812C23.3594 51.0506 23.4664 51.3089 23.6568 51.4994C23.8473 51.6899 24.1056 51.7969 24.375 51.7969C24.6444 51.7969 24.9027 51.6899 25.0932 51.4994C25.2836 51.3089 25.3906 51.0506 25.3906 50.7812V48.75C25.3906 48.4806 25.2836 48.2223 25.0932 48.0318C24.9027 47.8414 24.6444 47.7344 24.375 47.7344Z" fill="white"/>
<path d="M27.7192 52.0943C27.5335 52.2857 27.4306 52.5425 27.4326 52.8092C27.4347 53.0758 27.5415 53.331 27.7301 53.5196C27.9187 53.7081 28.1739 53.815 28.4406 53.817C28.7072 53.819 28.964 53.7161 29.1554 53.5304L31.1867 51.4991C31.3723 51.3077 31.4753 51.0509 31.4732 50.7842C31.4712 50.5176 31.3644 50.2624 31.1758 50.0738C30.9872 49.8852 30.732 49.7784 30.4653 49.7764C30.1987 49.7744 29.9419 49.8773 29.7505 50.063L27.7192 52.0943Z" fill="white"/>
<path d="M18.9991 50.063C18.8077 49.8773 18.5509 49.7744 18.2842 49.7764C18.0176 49.7784 17.7624 49.8853 17.5738 50.0739C17.3852 50.2624 17.2784 50.5176 17.2764 50.7843C17.2744 51.051 17.3773 51.3078 17.563 51.4992L19.5943 53.5304C19.688 53.6274 19.8 53.7048 19.9239 53.758C20.0479 53.8112 20.1811 53.8393 20.316 53.8404C20.4508 53.8416 20.5846 53.8159 20.7094 53.7648C20.8342 53.7138 20.9476 53.6384 21.043 53.543C21.1383 53.4476 21.2137 53.3342 21.2648 53.2094C21.3159 53.0846 21.3416 52.9509 21.3404 52.816C21.3392 52.6812 21.3112 52.5479 21.258 52.424C21.2047 52.3001 21.1274 52.188 21.0304 52.0943L18.9991 50.063Z" fill="white"/>
<path d="M24.375 35.5469C24.1056 35.5469 23.8473 35.6539 23.6568 35.8443C23.4664 36.0348 23.3594 36.2931 23.3594 36.5625V38.5938C23.3594 38.8631 23.4664 39.1214 23.6568 39.3119C23.8473 39.5024 24.1056 39.6094 24.375 39.6094C24.6444 39.6094 24.9027 39.5024 25.0932 39.3119C25.2836 39.1214 25.3906 38.8631 25.3906 38.5938V36.5625C25.3906 36.2931 25.2836 36.0348 25.0932 35.8443C24.9027 35.6539 24.6444 35.5469 24.375 35.5469Z" fill="white"/>
<path d="M27.7192 39.9068C27.5335 40.0982 27.4306 40.355 27.4326 40.6217C27.4347 40.8883 27.5415 41.1435 27.7301 41.3321C27.9187 41.5206 28.1739 41.6275 28.4406 41.6295C28.7072 41.6315 28.964 41.5286 29.1554 41.3429L31.1867 39.3116C31.3723 39.1202 31.4753 38.8634 31.4732 38.5967C31.4712 38.3301 31.3644 38.0749 31.1758 37.8863C30.9872 37.6977 30.732 37.5909 30.4653 37.5889C30.1987 37.5869 29.9419 37.6898 29.7505 37.8755L27.7192 39.9068Z" fill="white"/>
<path d="M18.9991 37.8755C18.8077 37.6898 18.5509 37.5869 18.2842 37.5889C18.0176 37.5909 17.7624 37.6978 17.5738 37.8864C17.3852 38.0749 17.2784 38.3301 17.2764 38.5968C17.2744 38.8635 17.3773 39.1203 17.563 39.3117L19.5943 41.3429C19.688 41.4399 19.8 41.5173 19.9239 41.5705C20.0479 41.6237 20.1811 41.6518 20.316 41.6529C20.4508 41.6541 20.5846 41.6284 20.7094 41.5773C20.8342 41.5263 20.9476 41.4509 21.043 41.3555C21.1383 41.2601 21.2137 41.1467 21.2648 41.0219C21.3159 40.8971 21.3416 40.7634 21.3404 40.6285C21.3392 40.4937 21.3112 40.3604 21.258 40.2365C21.2047 40.1126 21.1274 40.0005 21.0304 39.9068L18.9991 37.8755Z" fill="white"/>
<path d="M24.375 23.3594C24.1056 23.3594 23.8473 23.4664 23.6568 23.6568C23.4664 23.8473 23.3594 24.1056 23.3594 24.375V26.4062C23.3594 26.6756 23.4664 26.9339 23.6568 27.1244C23.8473 27.3149 24.1056 27.4219 24.375 27.4219C24.6444 27.4219 24.9027 27.3149 25.0932 27.1244C25.2836 26.9339 25.3906 26.6756 25.3906 26.4062V24.375C25.3906 24.1056 25.2836 23.8473 25.0932 23.6568C24.9027 23.4664 24.6444 23.3594 24.375 23.3594Z" fill="white"/>
<path d="M29.7505 25.6884L27.7192 27.7197C27.6222 27.8134 27.5449 27.9254 27.4916 28.0493C27.4384 28.1732 27.4104 28.3065 27.4092 28.4414C27.408 28.5762 27.4337 28.71 27.4848 28.8348C27.5359 28.9596 27.6113 29.073 27.7067 29.1684C27.802 29.2637 27.9154 29.3391 28.0402 29.3902C28.165 29.4413 28.2988 29.467 28.4336 29.4658C28.5685 29.4646 28.7018 29.4366 28.8257 29.3834C28.9496 29.3301 29.0616 29.2528 29.1553 29.1558L31.1866 27.1245C31.3716 26.933 31.474 26.6764 31.4716 26.4101C31.4693 26.1438 31.3625 25.8891 31.1742 25.7008C30.9859 25.5125 30.7312 25.4057 30.4649 25.4034C30.1986 25.401 29.942 25.5034 29.7505 25.6884Z" fill="white"/>
<path d="M18.9991 25.688C18.8077 25.5023 18.5509 25.3994 18.2842 25.4014C18.0176 25.4034 17.7624 25.5103 17.5738 25.6989C17.3852 25.8874 17.2784 26.1426 17.2764 26.4093C17.2744 26.676 17.3773 26.9328 17.563 27.1242L19.5943 29.1554C19.688 29.2524 19.8 29.3298 19.9239 29.383C20.0479 29.4362 20.1811 29.4643 20.316 29.4654C20.4508 29.4666 20.5846 29.4409 20.7094 29.3898C20.8342 29.3388 20.9476 29.2634 21.043 29.168C21.1383 29.0726 21.2137 28.9592 21.2648 28.8344C21.3159 28.7096 21.3416 28.5759 21.3404 28.441C21.3392 28.3062 21.3112 28.1729 21.258 28.049C21.2047 27.9251 21.1274 27.813 21.0304 27.7193L18.9991 25.688Z" fill="white"/>
<path d="M37.5781 32.5C37.5781 28.9983 36.1871 25.64 33.711 23.164C31.235 20.6879 27.8767 19.2969 24.375 19.2969C20.8733 19.2969 17.515 20.6879 15.039 23.164C12.5629 25.64 11.1719 28.9983 11.1719 32.5C11.1719 32.7694 11.2789 33.0277 11.4693 33.2182C11.6598 33.4086 11.9181 33.5156 12.1875 33.5156H17.3708C15.4759 34.7003 13.913 36.347 12.8288 38.3011C11.7445 40.2552 11.1744 42.4527 11.1719 44.6875C11.1719 44.9569 11.2789 45.2152 11.4693 45.4057C11.6598 45.5961 11.9181 45.7031 12.1875 45.7031H17.3708C15.4759 46.8878 13.913 48.5345 12.8288 50.4886C11.7445 52.4427 11.1744 54.6402 11.1719 56.875C11.1719 57.1444 11.2789 57.4027 11.4693 57.5932C11.6598 57.7836 11.9181 57.8906 12.1875 57.8906H18.2812C18.784 57.9035 19.2703 58.0726 19.6727 58.3744C20.0751 58.6762 20.3735 59.0957 20.5267 59.5747C20.884 60.2894 21.4333 60.8905 22.113 61.3106C22.7927 61.7307 23.576 61.9532 24.375 61.9532C25.174 61.9532 25.9573 61.7307 26.637 61.3106C27.3167 60.8905 27.866 60.2894 28.2233 59.5747C28.3765 59.0957 28.6749 58.6761 29.0773 58.3744C29.4796 58.0726 29.966 57.9035 30.4688 57.8906H36.5625C36.8319 57.8906 37.0902 57.7836 37.2807 57.5932C37.4711 57.4027 37.5781 57.1444 37.5781 56.875C37.5756 54.6402 37.0055 52.4427 35.9212 50.4886C34.837 48.5345 33.2741 46.8878 31.3792 45.7031H36.5625C36.8319 45.7031 37.0902 45.5961 37.2807 45.4057C37.4711 45.2152 37.5781 44.9569 37.5781 44.6875C37.5756 42.4527 37.0055 40.2552 35.9212 38.3011C34.837 36.347 33.2741 34.7003 31.3792 33.5156H36.5625C36.8319 33.5156 37.0902 33.4086 37.2807 33.2182C37.4711 33.0277 37.5781 32.7694 37.5781 32.5ZM35.5013 55.8594H30.4688C29.6692 55.8567 28.8848 56.0781 28.2046 56.4985C27.5245 56.9189 26.9757 57.5214 26.6204 58.2378C26.4779 58.7228 26.1821 59.1487 25.7773 59.4516C25.3726 59.7546 24.8806 59.9183 24.375 59.9183C23.8694 59.9183 23.3774 59.7546 22.9727 59.4516C22.5679 59.1487 22.2721 58.7228 22.1296 58.2378C21.7743 57.5214 21.2255 56.9189 20.5453 56.4985C19.8652 56.0782 19.0808 55.8567 18.2812 55.8594H13.2487C14.8651 42.404 33.8908 42.4156 35.5013 55.8594ZM35.5013 43.6719H30.4688C29.7049 43.6741 28.9554 43.8793 28.2969 44.2664C25.74 43.4897 23.01 43.4897 20.4531 44.2664C19.7946 43.8793 19.0451 43.6741 18.2812 43.6719H13.2487C14.8651 30.2165 33.8908 30.2281 35.5013 43.6719ZM30.4688 31.4844C29.7049 31.4866 28.9554 31.6918 28.2969 32.0789C25.74 31.3022 23.01 31.3022 20.4531 32.0789C19.7946 31.6918 19.0451 31.4866 18.2812 31.4844H13.2487C14.8522 18.0172 33.9029 18.0273 35.5011 31.4844H30.4688Z" fill="white"/>
</svg>
