<svg width="36" height="36" viewBox="0 0 36 36" fill="none" xmlns="http://www.w3.org/2000/svg">
<path d="M26.625 25.6667V10.3333L18.9583 18L26.625 25.6667ZM4.58333 35.25C3.52917 35.25 2.62674 34.8747 1.87604 34.124C1.12535 33.3733 0.75 32.4708 0.75 31.4167V4.58333C0.75 3.52917 1.12535 2.62674 1.87604 1.87604C2.62674 1.12535 3.52917 0.75 4.58333 0.75H31.4167C32.4708 0.75 33.3733 1.12535 34.124 1.87604C34.8747 2.62674 35.25 3.52917 35.25 4.58333V31.4167C35.25 32.4708 34.8747 33.3733 34.124 34.124C33.3733 34.8747 32.4708 35.25 31.4167 35.25H4.58333ZM10.3333 31.4167V4.58333H4.58333V31.4167H10.3333ZM14.1667 31.4167H31.4167V4.58333H14.1667V31.4167Z" fill="#1F1F1F"/>
</svg>
