<svg width="56" height="56" viewBox="0 0 56 56" fill="none" xmlns="http://www.w3.org/2000/svg">
<path d="M12.7994 9.33333H52L46.6667 28H15.6712M49.3333 38.6667H17.3333L12 4H4M20 49.3333C20 50.8061 18.8061 52 17.3333 52C15.8606 52 14.6667 50.8061 14.6667 49.3333C14.6667 47.8605 15.8606 46.6667 17.3333 46.6667C18.8061 46.6667 20 47.8605 20 49.3333ZM49.3333 49.3333C49.3333 50.8061 48.1395 52 46.6667 52C45.1939 52 44 50.8061 44 49.3333C44 47.8605 45.1939 46.6667 46.6667 46.6667C48.1395 46.6667 49.3333 47.8605 49.3333 49.3333Z" stroke="white" stroke-width="6.4" stroke-linecap="round" stroke-linejoin="round"/>
</svg>
