<svg width="65" height="65" viewBox="0 0 65 65" fill="none" xmlns="http://www.w3.org/2000/svg">
<path d="M57.8906 11.2162V6.09375C57.8906 5.28567 57.5696 4.51068 56.9982 3.93928C56.4268 3.36788 55.6518 3.04688 54.8438 3.04688C54.0357 3.04688 53.2607 3.36788 52.6893 3.93928C52.1179 4.51068 51.7969 5.28567 51.7969 6.09375V11.1719H49.7656V6.09375C49.7656 5.28567 49.4446 4.51068 48.8732 3.93928C48.3018 3.36788 47.5268 3.04688 46.7188 3.04688C45.9107 3.04688 45.1357 3.36788 44.5643 3.93928C43.9929 4.51068 43.6719 5.28567 43.6719 6.09375V11.1719H7.54772C6.35447 11.1733 5.2105 11.648 4.36674 12.4917C3.52299 13.3355 3.04833 14.4795 3.04688 15.6727V49.3273C3.04833 50.5205 3.52299 51.6645 4.36674 52.5083C5.2105 53.352 6.35447 53.8267 7.54772 53.8281H43.6719V60.9375C43.6719 61.2069 43.7789 61.4652 43.9693 61.6557C44.1598 61.8461 44.4181 61.9531 44.6875 61.9531H48.75C49.0194 61.9531 49.2777 61.8461 49.4682 61.6557C49.6586 61.4652 49.7656 61.2069 49.7656 60.9375V53.8281H51.7969V60.9375C51.7969 61.2069 51.9039 61.4652 52.0943 61.6557C52.2848 61.8461 52.5431 61.9531 52.8125 61.9531H56.875C57.1444 61.9531 57.4027 61.8461 57.5932 61.6557C57.7836 61.4652 57.8906 61.2069 57.8906 60.9375V53.7838C59 53.6773 60.0301 53.1622 60.7809 52.3386C61.5317 51.515 61.9495 50.4417 61.9531 49.3273V15.6727C61.9495 14.5583 61.5317 13.485 60.7809 12.6614C60.0301 11.8378 59 11.3227 57.8906 11.2162ZM53.8281 6.09375C53.8281 5.82439 53.9351 5.56606 54.1256 5.37559C54.3161 5.18513 54.5744 5.07812 54.8438 5.07812C55.1131 5.07812 55.3714 5.18513 55.5619 5.37559C55.7524 5.56606 55.8594 5.82439 55.8594 6.09375C55.8594 9.87959 55.8594 35.2254 55.8594 39.6094H53.8281V6.09375ZM51.7969 31.4844H49.7656V17.2656H51.7969V31.4844ZM49.7656 33.5156H51.7969V47.7344H49.7656V33.5156ZM51.7969 13.2031V15.2344H49.7656V13.2031H51.7969ZM45.7031 6.09375C45.7031 5.82439 45.8101 5.56606 46.0006 5.37559C46.1911 5.18513 46.4494 5.07812 46.7188 5.07812C46.9881 5.07812 47.2464 5.18513 47.4369 5.37559C47.6274 5.56606 47.7344 5.82439 47.7344 6.09375V12.1875C47.7344 19.1318 47.7344 32.7083 47.7344 39.6094H45.7031V6.09375ZM37.5781 17.2656H43.6719V31.4844H37.5781V17.2656ZM35.5469 32.5V47.7344H9.14062V17.2656H35.5469V32.5ZM37.5781 33.5156H43.6719V47.7344H37.5781V33.5156ZM7.54772 51.7969C6.89296 51.7962 6.26524 51.5357 5.80225 51.0727C5.33927 50.6098 5.07885 49.982 5.07812 49.3273V15.6727C5.07885 15.018 5.33927 14.3902 5.80225 13.9273C6.26524 13.4643 6.89296 13.2039 7.54772 13.2031H43.6719V15.2344C39.1582 15.242 13.2234 15.2289 8.125 15.2344C7.85564 15.2344 7.59731 15.3414 7.40685 15.5318C7.21638 15.7223 7.10938 15.9806 7.10938 16.25V48.75C7.10938 49.0194 7.21638 49.2777 7.40685 49.4682C7.59731 49.6586 7.85564 49.7656 8.125 49.7656C13.3667 49.7687 39.0009 49.7635 43.6719 49.7656V51.7969H7.54772ZM47.7344 59.9219H45.7031V41.6406H47.7344V59.9219ZM49.7656 51.7969V49.7656H51.7969V51.7969H49.7656ZM55.8594 59.9219H53.8281V41.6406H55.8594V59.9219ZM59.9219 49.3273C59.921 49.906 59.7173 50.4662 59.3462 50.9103C58.9751 51.3544 58.46 51.6545 57.8906 51.7582V13.2418C58.46 13.3455 58.9751 13.6456 59.3462 14.0897C59.7173 14.5338 59.921 15.094 59.9219 15.6727V49.3273Z" fill="white"/>
<path d="M14.2188 25.3906C15.0266 25.3897 15.801 25.0684 16.3722 24.4972C16.9434 23.926 17.2647 23.1516 17.2656 22.3438C17.2656 22.0744 17.1586 21.8161 16.9682 21.6256C16.7777 21.4351 16.5194 21.3281 16.25 21.3281C15.9806 21.3281 15.7223 21.4351 15.5318 21.6256C15.3414 21.8161 15.2344 22.0744 15.2344 22.3438C15.2344 22.6131 15.1274 22.8714 14.9369 23.0619C14.7464 23.2524 14.4881 23.3594 14.2188 23.3594C13.9494 23.3594 13.6911 23.2524 13.5006 23.0619C13.3101 22.8714 13.2031 22.6131 13.2031 22.3438C13.2031 22.0744 13.0961 21.8161 12.9057 21.6256C12.7152 21.4351 12.4569 21.3281 12.1875 21.3281C11.9181 21.3281 11.6598 21.4351 11.4693 21.6256C11.2789 21.8161 11.1719 22.0744 11.1719 22.3438C11.1728 23.1516 11.4941 23.926 12.0653 24.4972C12.6365 25.0684 13.4109 25.3897 14.2188 25.3906Z" fill="white"/>
<path d="M22.3438 25.3906C23.1516 25.3897 23.926 25.0684 24.4972 24.4972C25.0684 23.926 25.3897 23.1516 25.3906 22.3438C25.3906 22.0744 25.2836 21.8161 25.0932 21.6256C24.9027 21.4351 24.6444 21.3281 24.375 21.3281C24.1056 21.3281 23.8473 21.4351 23.6568 21.6256C23.4664 21.8161 23.3594 22.0744 23.3594 22.3438C23.3594 22.6131 23.2524 22.8714 23.0619 23.0619C22.8714 23.2524 22.6131 23.3594 22.3438 23.3594C22.0744 23.3594 21.8161 23.2524 21.6256 23.0619C21.4351 22.8714 21.3281 22.6131 21.3281 22.3438C21.3281 22.0744 21.2211 21.8161 21.0307 21.6256C20.8402 21.4351 20.5819 21.3281 20.3125 21.3281C20.0431 21.3281 19.7848 21.4351 19.5943 21.6256C19.4039 21.8161 19.2969 22.0744 19.2969 22.3438C19.2978 23.1516 19.6191 23.926 20.1903 24.4972C20.7615 25.0684 21.5359 25.3897 22.3438 25.3906Z" fill="white"/>
<path d="M16.25 27.4219C15.9806 27.4219 15.7223 27.5289 15.5318 27.7193C15.3414 27.9098 15.2344 28.1681 15.2344 28.4375C15.2344 29.2456 15.5554 30.0206 16.1268 30.592C16.6982 31.1634 17.4732 31.4844 18.2812 31.4844C19.0893 31.4844 19.8643 31.1634 20.4357 30.592C21.0071 30.0206 21.3281 29.2456 21.3281 28.4375C21.3281 28.1681 21.2211 27.9098 21.0307 27.7193C20.8402 27.5289 20.5819 27.4219 20.3125 27.4219C20.0431 27.4219 19.7848 27.5289 19.5943 27.7193C19.4039 27.9098 19.2969 28.1681 19.2969 28.4375C19.2969 28.7069 19.1899 28.9652 18.9994 29.1557C18.8089 29.3461 18.5506 29.4531 18.2812 29.4531C18.0119 29.4531 17.7536 29.3461 17.5631 29.1557C17.3726 28.9652 17.2656 28.7069 17.2656 28.4375C17.2656 28.1681 17.1586 27.9098 16.9682 27.7193C16.7777 27.5289 16.5194 27.4219 16.25 27.4219Z" fill="white"/>
<path d="M24.375 27.4219C24.1056 27.4219 23.8473 27.5289 23.6568 27.7193C23.4664 27.9098 23.3594 28.1681 23.3594 28.4375C23.3594 29.2456 23.6804 30.0206 24.2518 30.592C24.8232 31.1634 25.5982 31.4844 26.4062 31.4844C27.2143 31.4844 27.9893 31.1634 28.5607 30.592C29.1321 30.0206 29.4531 29.2456 29.4531 28.4375C29.4531 28.1681 29.3461 27.9098 29.1557 27.7193C28.9652 27.5289 28.7069 27.4219 28.4375 27.4219C28.1681 27.4219 27.9098 27.5289 27.7193 27.7193C27.5289 27.9098 27.4219 28.1681 27.4219 28.4375C27.4219 28.7069 27.3149 28.9652 27.1244 29.1557C26.9339 29.3461 26.6756 29.4531 26.4062 29.4531C26.1369 29.4531 25.8786 29.3461 25.6881 29.1557C25.4976 28.9652 25.3906 28.7069 25.3906 28.4375C25.3906 28.1681 25.2836 27.9098 25.0932 27.7193C24.9027 27.5289 24.6444 27.4219 24.375 27.4219Z" fill="white"/>
<path d="M30.4688 25.3906C31.2766 25.3897 32.051 25.0684 32.6222 24.4972C33.1934 23.926 33.5147 23.1516 33.5156 22.3438C33.5156 22.0744 33.4086 21.8161 33.2182 21.6256C33.0277 21.4351 32.7694 21.3281 32.5 21.3281C32.2306 21.3281 31.9723 21.4351 31.7818 21.6256C31.5914 21.8161 31.4844 22.0744 31.4844 22.3438C31.4844 22.6131 31.3774 22.8714 31.1869 23.0619C30.9964 23.2524 30.7381 23.3594 30.4688 23.3594C30.1994 23.3594 29.9411 23.2524 29.7506 23.0619C29.5601 22.8714 29.4531 22.6131 29.4531 22.3438C29.4531 22.0744 29.3461 21.8161 29.1557 21.6256C28.9652 21.4351 28.7069 21.3281 28.4375 21.3281C28.1681 21.3281 27.9098 21.4351 27.7193 21.6256C27.5289 21.8161 27.4219 22.0744 27.4219 22.3438C27.4228 23.1516 27.7441 23.926 28.3153 24.4972C28.8865 25.0684 29.6609 25.3897 30.4688 25.3906Z" fill="white"/>
<path d="M14.2188 37.5781C15.0266 37.5772 15.801 37.2559 16.3722 36.6847C16.9434 36.1135 17.2647 35.3391 17.2656 34.5312C17.2656 34.2619 17.1586 34.0036 16.9682 33.8131C16.7777 33.6226 16.5194 33.5156 16.25 33.5156C15.9806 33.5156 15.7223 33.6226 15.5318 33.8131C15.3414 34.0036 15.2344 34.2619 15.2344 34.5312C15.2344 34.8006 15.1274 35.0589 14.9369 35.2494C14.7464 35.4399 14.4881 35.5469 14.2188 35.5469C13.9494 35.5469 13.6911 35.4399 13.5006 35.2494C13.3101 35.0589 13.2031 34.8006 13.2031 34.5312C13.2031 34.2619 13.0961 34.0036 12.9057 33.8131C12.7152 33.6226 12.4569 33.5156 12.1875 33.5156C11.9181 33.5156 11.6598 33.6226 11.4693 33.8131C11.2789 34.0036 11.1719 34.2619 11.1719 34.5312C11.1728 35.3391 11.4941 36.1135 12.0653 36.6847C12.6365 37.2559 13.4109 37.5772 14.2188 37.5781Z" fill="white"/>
<path d="M25.3906 34.5312C25.3906 34.2619 25.2836 34.0036 25.0932 33.8131C24.9027 33.6226 24.6444 33.5156 24.375 33.5156C24.1056 33.5156 23.8473 33.6226 23.6568 33.8131C23.4664 34.0036 23.3594 34.2619 23.3594 34.5312C23.3594 34.8006 23.2524 35.0589 23.0619 35.2494C22.8714 35.4399 22.6131 35.5469 22.3438 35.5469C22.0744 35.5469 21.8161 35.4399 21.6256 35.2494C21.4351 35.0589 21.3281 34.8006 21.3281 34.5312C21.3281 34.2619 21.2211 34.0036 21.0307 33.8131C20.8402 33.6226 20.5819 33.5156 20.3125 33.5156C20.0431 33.5156 19.7848 33.6226 19.5943 33.8131C19.4039 34.0036 19.2969 34.2619 19.2969 34.5312C19.2969 35.3393 19.6179 36.1143 20.1893 36.6857C20.7607 37.2571 21.5357 37.5781 22.3438 37.5781C23.1518 37.5781 23.9268 37.2571 24.4982 36.6857C25.0696 36.1143 25.3906 35.3393 25.3906 34.5312Z" fill="white"/>
<path d="M20.3125 39.6094C20.0431 39.6094 19.7848 39.7164 19.5943 39.9068C19.4039 40.0973 19.2969 40.3556 19.2969 40.625C19.2969 40.8944 19.1899 41.1527 18.9994 41.3432C18.8089 41.5336 18.5506 41.6406 18.2812 41.6406C18.0119 41.6406 17.7536 41.5336 17.5631 41.3432C17.3726 41.1527 17.2656 40.8944 17.2656 40.625C17.2656 40.3556 17.1586 40.0973 16.9682 39.9068C16.7777 39.7164 16.5194 39.6094 16.25 39.6094C15.9806 39.6094 15.7223 39.7164 15.5318 39.9068C15.3414 40.0973 15.2344 40.3556 15.2344 40.625C15.2344 41.4331 15.5554 42.2081 16.1268 42.7795C16.6982 43.3509 17.4732 43.6719 18.2812 43.6719C19.0893 43.6719 19.8643 43.3509 20.4357 42.7795C21.0071 42.2081 21.3281 41.4331 21.3281 40.625C21.3281 40.3556 21.2211 40.0973 21.0307 39.9068C20.8402 39.7164 20.5819 39.6094 20.3125 39.6094Z" fill="white"/>
<path d="M28.4375 39.6094C28.1681 39.6094 27.9098 39.7164 27.7193 39.9068C27.5289 40.0973 27.4219 40.3556 27.4219 40.625C27.4219 40.8944 27.3149 41.1527 27.1244 41.3432C26.9339 41.5336 26.6756 41.6406 26.4062 41.6406C26.1369 41.6406 25.8786 41.5336 25.6881 41.3432C25.4976 41.1527 25.3906 40.8944 25.3906 40.625C25.3906 40.3556 25.2836 40.0973 25.0932 39.9068C24.9027 39.7164 24.6444 39.6094 24.375 39.6094C24.1056 39.6094 23.8473 39.7164 23.6568 39.9068C23.4664 40.0973 23.3594 40.3556 23.3594 40.625C23.3594 41.4331 23.6804 42.2081 24.2518 42.7795C24.8232 43.3509 25.5982 43.6719 26.4062 43.6719C27.2143 43.6719 27.9893 43.3509 28.5607 42.7795C29.1321 42.2081 29.4531 41.4331 29.4531 40.625C29.4531 40.3556 29.3461 40.0973 29.1557 39.9068C28.9652 39.7164 28.7069 39.6094 28.4375 39.6094Z" fill="white"/>
<path d="M32.5 33.5156C32.2306 33.5156 31.9723 33.6226 31.7818 33.8131C31.5914 34.0036 31.4844 34.2619 31.4844 34.5312C31.4844 34.8006 31.3774 35.0589 31.1869 35.2494C30.9964 35.4399 30.7381 35.5469 30.4688 35.5469C30.1994 35.5469 29.9411 35.4399 29.7506 35.2494C29.5601 35.0589 29.4531 34.8006 29.4531 34.5312C29.4531 34.2619 29.3461 34.0036 29.1557 33.8131C28.9652 33.6226 28.7069 33.5156 28.4375 33.5156C28.1681 33.5156 27.9098 33.6226 27.7193 33.8131C27.5289 34.0036 27.4219 34.2619 27.4219 34.5312C27.4219 35.3393 27.7429 36.1143 28.3143 36.6857C28.8857 37.2571 29.6607 37.5781 30.4688 37.5781C31.2768 37.5781 32.0518 37.2571 32.6232 36.6857C33.1946 36.1143 33.5156 35.3393 33.5156 34.5312C33.5156 34.2619 33.4086 34.0036 33.2182 33.8131C33.0277 33.6226 32.7694 33.5156 32.5 33.5156Z" fill="white"/>
</svg>
