<svg width="35" height="35" viewBox="0 0 35 35" fill="none" xmlns="http://www.w3.org/2000/svg">
<path d="M18.2083 9.58333V24.9167L25.875 17.25L18.2083 9.58333ZM3.83333 34.5C2.77917 34.5 1.87674 34.1247 1.12604 33.374C0.375347 32.6233 0 31.7208 0 30.6667V3.83333C0 2.77917 0.375347 1.87674 1.12604 1.12604C1.87674 0.375347 2.77917 0 3.83333 0H30.6667C31.7208 0 32.6233 0.375347 33.374 1.12604C34.1247 1.87674 34.5 2.77917 34.5 3.83333V30.6667C34.5 31.7208 34.1247 32.6233 33.374 33.374C32.6233 34.1247 31.7208 34.5 30.6667 34.5H3.83333ZM9.58333 30.6667V3.83333H3.83333V30.6667H9.58333ZM13.4167 30.6667H30.6667V3.83333H13.4167V30.6667Z" fill="#1F1F1F"/>
</svg>
