<svg width="39" height="31" viewBox="0 0 39 31" fill="none" xmlns="http://www.w3.org/2000/svg">
<path d="M4.43302 9.58333H33.8539L32.2247 3.83333H6.1101L4.43302 9.58333ZM28.3434 13.4167H9.99135L9.46427 17.25H28.8226L28.3434 13.4167ZM3.8101 30.6667L6.15802 13.4167H1.89343C1.25455 13.4167 0.75142 13.1611 0.384059 12.65C0.0166982 12.1389 -0.0871212 11.5799 0.072601 10.9729L2.80385 1.38958C2.93163 0.974306 3.15524 0.638889 3.47468 0.383333C3.79413 0.127778 4.17746 0 4.62468 0H33.6622C34.1094 0 34.4927 0.127778 34.8122 0.383333C35.1316 0.638889 35.3552 0.974306 35.483 1.38958L38.2143 10.9729C38.374 11.5799 38.2702 12.1389 37.9028 12.65C37.5354 13.1611 37.0323 13.4167 36.3934 13.4167H32.1768L34.4768 30.6667H30.6434L29.3497 21.0833H8.93718L7.64343 30.6667H3.8101Z" fill="#1F1F1F"/>
</svg>
