<svg width="178" height="38" viewBox="0 0 178 38" fill="none" xmlns="http://www.w3.org/2000/svg">
<path d="M0.465199 34V5.63636H6.462V18.1424H6.83594L17.043 5.63636H24.2308L13.7053 18.3363L24.3555 34H17.1815L9.41193 22.3388L6.462 25.9396V34H0.465199ZM33.3091 34.4016C31.9519 34.4016 30.7424 34.1662 29.6806 33.6953C28.6188 33.2152 27.7786 32.5089 27.16 31.5763C26.5506 30.6346 26.2459 29.462 26.2459 28.0586C26.2459 26.8768 26.4629 25.8842 26.8968 25.081C27.3308 24.2777 27.9217 23.6314 28.6696 23.142C29.4174 22.6527 30.2669 22.2834 31.2179 22.0341C32.1781 21.7848 33.1845 21.6094 34.237 21.5078C35.4743 21.3786 36.4714 21.2585 37.2285 21.1477C37.9856 21.0277 38.535 20.8523 38.8766 20.6214C39.2182 20.3906 39.389 20.049 39.389 19.5966V19.5135C39.389 18.6364 39.112 17.9577 38.5581 17.4776C38.0133 16.9975 37.2377 16.7575 36.2314 16.7575C35.1696 16.7575 34.3248 16.9929 33.6969 17.4638C33.0691 17.9254 32.6536 18.5071 32.4505 19.2088L26.9938 18.7656C27.2708 17.473 27.8155 16.3558 28.628 15.4141C29.4405 14.4631 30.4885 13.7337 31.7718 13.2259C33.0645 12.7088 34.5602 12.4503 36.2591 12.4503C37.4409 12.4503 38.5719 12.5888 39.6522 12.8658C40.7417 13.1428 41.7065 13.5721 42.5467 14.1538C43.3961 14.7354 44.0655 15.4833 44.5549 16.3974C45.0442 17.3022 45.2889 18.3871 45.2889 19.652V34H39.6937V31.0501H39.5275C39.1859 31.7148 38.7289 32.3011 38.1564 32.8089C37.584 33.3075 36.8961 33.6999 36.0929 33.9862C35.2896 34.2631 34.3617 34.4016 33.3091 34.4016ZM34.9988 30.3299C35.8667 30.3299 36.633 30.1591 37.2978 29.8175C37.9625 29.4666 38.4842 28.9957 38.8627 28.4048C39.2413 27.8139 39.4306 27.1445 39.4306 26.3967V24.1392C39.2459 24.2592 38.992 24.37 38.6689 24.4716C38.3549 24.5639 37.9995 24.6516 37.6025 24.7347C37.2054 24.8086 36.8084 24.8778 36.4114 24.9425C36.0144 24.9979 35.6543 25.0487 35.3311 25.0948C34.6387 25.1964 34.0339 25.358 33.5169 25.5795C32.9998 25.8011 32.5982 26.1012 32.312 26.4798C32.0257 26.8491 31.8826 27.3107 31.8826 27.8647C31.8826 28.668 32.1735 29.282 32.7551 29.7067C33.3461 30.1222 34.0939 30.3299 34.9988 30.3299ZM59.4776 34.4155C57.3263 34.4155 55.4659 33.9585 53.8963 33.0444C52.3359 32.1211 51.131 30.8377 50.2816 29.1942C49.4322 27.5415 49.0075 25.6257 49.0075 23.4467C49.0075 21.2493 49.4322 19.3288 50.2816 17.6854C51.131 16.0327 52.3359 14.7493 53.8963 13.8352C55.4659 12.9119 57.3263 12.4503 59.4776 12.4503C61.6289 12.4503 63.4847 12.9119 65.0451 13.8352C66.6147 14.7493 67.8242 16.0327 68.6737 17.6854C69.5231 19.3288 69.9478 21.2493 69.9478 23.4467C69.9478 25.6257 69.5231 27.5415 68.6737 29.1942C67.8242 30.8377 66.6147 32.1211 65.0451 33.0444C63.4847 33.9585 61.6289 34.4155 59.4776 34.4155ZM59.5053 29.8452C60.484 29.8452 61.3011 29.5682 61.9567 29.0142C62.6122 28.451 63.1062 27.6847 63.4386 26.7152C63.7802 25.7457 63.951 24.6424 63.951 23.4052C63.951 22.168 63.7802 21.0646 63.4386 20.0952C63.1062 19.1257 62.6122 18.3594 61.9567 17.7962C61.3011 17.233 60.484 16.9513 59.5053 16.9513C58.5174 16.9513 57.6864 17.233 57.0124 17.7962C56.3477 18.3594 55.8445 19.1257 55.5028 20.0952C55.1705 21.0646 55.0043 22.168 55.0043 23.4052C55.0043 24.6424 55.1705 25.7457 55.5028 26.7152C55.8445 27.6847 56.3477 28.451 57.0124 29.0142C57.6864 29.5682 58.5174 29.8452 59.5053 29.8452ZM73.7841 34V12.7273H79.5039V16.4389H79.7255C80.1133 15.1186 80.7642 14.1214 81.6783 13.4474C82.5923 12.7642 83.6449 12.4226 84.8359 12.4226C85.1314 12.4226 85.4499 12.4411 85.7915 12.478C86.1332 12.5149 86.4332 12.5657 86.6918 12.6303V17.8654C86.4148 17.7823 86.0316 17.7085 85.5423 17.6438C85.0529 17.5792 84.6051 17.5469 84.1989 17.5469C83.331 17.5469 82.5554 17.7362 81.8722 18.1147C81.1982 18.484 80.6626 19.0011 80.2656 19.6658C79.8778 20.3306 79.6839 21.0969 79.6839 21.9648V34H73.7841ZM89.7421 34V12.7273H95.642V34H89.7421ZM92.7059 9.98508C91.8287 9.98508 91.0763 9.69425 90.4484 9.11257C89.8298 8.52166 89.5205 7.81534 89.5205 6.99361C89.5205 6.18111 89.8298 5.48402 90.4484 4.90234C91.0763 4.31143 91.8287 4.01598 92.7059 4.01598C93.583 4.01598 94.3309 4.31143 94.9495 4.90234C95.5773 5.48402 95.8912 6.18111 95.8912 6.99361C95.8912 7.81534 95.5773 8.52166 94.9495 9.11257C94.3309 9.69425 93.583 9.98508 92.7059 9.98508Z" fill="white"/>
<path d="M114.723 21.793H139.02V37.432H134.145V25.342H119.364V37.471H114.723V21.793ZM117.492 27.409H135.549V30.568H117.492V27.409ZM117.492 32.713H136.329V36.262H117.492V32.713ZM109.107 9.781H144.051V13.954H109.107V9.781ZM124.122 5.218H128.997V20.896H124.122V5.218ZM122.601 10.756L126.267 12.199C125.409 13.525 124.408 14.786 123.264 15.982C122.146 17.178 120.924 18.296 119.598 19.336C118.298 20.376 116.92 21.312 115.464 22.144C114.008 22.976 112.526 23.678 111.018 24.25C110.81 23.86 110.524 23.431 110.16 22.963C109.796 22.495 109.419 22.04 109.029 21.598C108.665 21.156 108.314 20.779 107.976 20.467C109.432 19.999 110.862 19.427 112.266 18.751C113.696 18.075 115.061 17.321 116.361 16.489C117.661 15.631 118.844 14.721 119.91 13.759C120.976 12.771 121.873 11.77 122.601 10.756ZM130.362 10.873C131.116 11.861 132.052 12.81 133.17 13.72C134.288 14.63 135.51 15.501 136.836 16.333C138.162 17.139 139.54 17.88 140.97 18.556C142.426 19.206 143.856 19.752 145.26 20.194C144.948 20.506 144.597 20.883 144.207 21.325C143.817 21.767 143.44 22.222 143.076 22.69C142.738 23.158 142.465 23.587 142.257 23.977C140.801 23.405 139.345 22.716 137.889 21.91C136.459 21.104 135.055 20.207 133.677 19.219C132.325 18.205 131.051 17.139 129.855 16.021C128.685 14.877 127.645 13.694 126.735 12.472L130.362 10.873ZM136.602 0.927998L139.878 4.672C138.058 5.14 136.069 5.543 133.911 5.881C131.753 6.219 129.517 6.505 127.203 6.739C124.915 6.973 122.614 7.168 120.3 7.324C117.986 7.454 115.737 7.558 113.553 7.636C113.475 7.064 113.319 6.388 113.085 5.608C112.851 4.828 112.617 4.178 112.383 3.658C114.541 3.554 116.725 3.424 118.935 3.268C121.171 3.112 123.355 2.93 125.487 2.722C127.645 2.488 129.673 2.228 131.571 1.942C133.469 1.63 135.146 1.292 136.602 0.927998ZM160.119 2.683C159.989 3.151 159.846 3.736 159.69 4.438C159.534 5.14 159.378 5.881 159.222 6.661C159.066 7.415 158.923 8.156 158.793 8.884C158.689 9.612 158.611 10.249 158.559 10.795C159.027 10.015 159.586 9.261 160.236 8.533C160.886 7.779 161.614 7.103 162.42 6.505C163.252 5.881 164.149 5.387 165.111 5.023C166.099 4.659 167.139 4.477 168.231 4.477C170.051 4.477 171.689 5.036 173.145 6.154C174.601 7.272 175.745 8.871 176.577 10.951C177.435 13.031 177.864 15.501 177.864 18.361C177.864 21.117 177.461 23.535 176.655 25.615C175.849 27.669 174.692 29.424 173.184 30.88C171.676 32.336 169.869 33.519 167.763 34.429C165.683 35.365 163.356 36.067 160.782 36.535L157.818 32.011C159.976 31.673 161.952 31.218 163.746 30.646C165.566 30.048 167.126 29.242 168.426 28.228C169.752 27.214 170.766 25.914 171.468 24.328C172.196 22.716 172.56 20.74 172.56 18.4C172.56 16.398 172.352 14.708 171.936 13.33C171.52 11.926 170.909 10.86 170.103 10.132C169.323 9.404 168.387 9.04 167.295 9.04C166.151 9.04 165.059 9.417 164.019 10.171C162.979 10.925 162.043 11.913 161.211 13.135C160.405 14.331 159.755 15.631 159.261 17.035C158.793 18.439 158.533 19.791 158.481 21.091C158.455 21.637 158.442 22.235 158.442 22.885C158.468 23.535 158.546 24.315 158.676 25.225L153.879 25.537C153.775 24.783 153.658 23.847 153.528 22.729C153.424 21.585 153.372 20.35 153.372 19.024C153.372 18.114 153.398 17.139 153.45 16.099C153.528 15.059 153.606 14.006 153.684 12.94C153.788 11.848 153.905 10.756 154.035 9.664C154.191 8.572 154.334 7.532 154.464 6.544C154.568 5.79 154.646 5.049 154.698 4.321C154.75 3.593 154.776 2.969 154.776 2.449L160.119 2.683Z" fill="#FF0000"/>
</svg>
