<svg width="54" height="54" viewBox="0 0 54 54" fill="none" xmlns="http://www.w3.org/2000/svg">
<path d="M44.5 2H9.5C5.35786 2 2 5.35786 2 9.5V44.5C2 48.6421 5.35786 52 9.5 52H44.5C48.6421 52 52 48.6421 52 44.5V9.5C52 5.35786 48.6421 2 44.5 2Z" stroke="#FF6347" stroke-width="3.75"/>
<path d="M37 9.5H17C15.6193 9.5 14.5 10.6193 14.5 12V37C14.5 38.3807 15.6193 39.5 17 39.5H37C38.3807 39.5 39.5 38.3807 39.5 37V12C39.5 10.6193 38.3807 9.5 37 9.5Z" fill="#FFF8E8"/>
<path d="M27 14C28.1046 14 29 13.1046 29 12C29 10.8954 28.1046 10 27 10C25.8954 10 25 10.8954 25 12C25 13.1046 25.8954 14 27 14Z" fill="#333333"/>
<path d="M22 18.25L25.75 22L32 15.75" stroke="#333333" stroke-width="2.5" stroke-linecap="round" stroke-linejoin="round"/>
<path d="M42 32H12V35.75H42V32Z" fill="#FF6347"/>
<path d="M15.75 35.75H12V43.25H15.75V35.75Z" fill="#FF6347"/>
<path d="M42 35.75H38.25V43.25H42V35.75Z" fill="#FF6347"/>
<path d="M34.5 35.75H19.5V38.25H34.5V35.75Z" fill="#FF6347"/>
</svg>
